<?xml version="1.0" encoding="UTF-8"?> <!-- Generator: Adobe Illustrator 24.1.1, SVG Export Plug-In . SVG Version: 6.00 Build 0) --> <svg xmlns="http://www.w3.org/2000/svg" xmlns:xlink="http://www.w3.org/1999/xlink" version="1.1" id="Calque_1" x="0px" y="0px" viewBox="0 0 900 244" style="enable-background:new 0 0 900 244;" xml:space="preserve"> <style type="text/css"> .st0{fill:#120045;} .st1{fill:#FFFFFF;} </style> <g> <path class="st0" d="M219.41,100.73l-81.1-46.82v38.35l33.24,19.17l-33.24,19.18v38.35l81.1-46.85 C227.63,117.36,227.63,105.48,219.41,100.73"></path> <path class="st0" d="M57.22,160.48l81.1,46.82v-38.35l-33.24-19.17l33.24-19.18V92.26l-81.1,46.85 C48.99,143.85,48.99,155.73,57.22,160.48"></path> <path class="st0" d="M291.13,164.64h-29.98l-2.9,10.27h-20.67l28.65-84.61h19.7l28.77,84.61h-20.67L291.13,164.64z M286.78,149.29 l-10.76-37.35l-10.64,37.35H286.78z"></path> <path class="st0" d="M314.25,145.79c0-18.37,11.96-30.71,31.18-30.71c17.41,0,28.77,9.19,30.22,23.69h-18.5 c-1.33-5.44-4.83-7.98-11.6-7.98c-7.98,0-12.81,5.31-12.81,14.99c0,9.67,4.83,14.99,12.81,14.99c6.77,0,10.27-2.42,11.6-7.49h18.5 c-1.45,14.14-12.82,23.21-30.22,23.21C326.21,176.49,314.25,164.16,314.25,145.79"></path> <path class="st0" d="M420.33,160.17v14.75c-2.66,0.48-6.48,0.97-11.8,0.97c-8.7,0-20.67-1.94-20.67-21.4v-23.21h-9.18v-14.63h9.18 V99.37h18.5v17.29h13.97v14.63h-13.97v19.34c0,8.59,3.5,9.91,8.1,9.91C416.51,160.53,418.64,160.41,420.33,160.17"></path> <path class="st0" d="M426.79,100.58c0-6.16,4.84-11.36,11.48-11.36c6.77,0,11.48,5.2,11.48,11.36c0,6.29-4.71,11.37-11.48,11.37 C431.63,111.95,426.79,106.87,426.79,100.58 M429.09,116.65h18.37v58.26h-18.37V116.65z"></path> <polygon class="st0" points="453.18,116.66 473.61,116.66 486.66,153.28 499.72,116.66 520.27,116.66 495,174.92 478.32,174.92 "></polygon> <path class="st0" d="M518.08,145.79c0-19.1,12.45-30.71,31.43-30.71c18.13,0,30.46,11.24,30.46,27.68c0,3.02-0.12,4.83-0.48,8.1 h-43.03c0.36,7.61,5.44,11.73,13.65,11.73c5.68,0,9.31-1.57,10.88-5.2h18.13c-1.82,11.48-13.54,19.1-29.01,19.1 C530.29,176.49,518.08,165.25,518.08,145.79 M561.72,139.38c-0.12-7.74-4.47-11.85-12.33-11.85c-7.98,0-12.81,4.71-12.93,11.85 H561.72z"></path> <polygon class="st0" points="575.38,90.31 596.42,90.31 613.94,150.02 631.47,90.31 652.5,90.31 624.09,174.92 603.79,174.92 "></polygon> <path class="st0" d="M655.05,100.58c0-6.16,4.83-11.36,11.48-11.36c6.77,0,11.48,5.2,11.48,11.36c0,6.29-4.71,11.37-11.48,11.37 C659.88,111.95,655.05,106.87,655.05,100.58 M657.34,116.65h18.37v58.26h-18.37V116.65z"></path> <path class="st0" d="M681.96,145.79c0-17.41,10.76-30.71,27.68-30.71c8.46,0,15.11,3.99,18.25,9.91v-8.34h18.37v58.26H727.9v-8.22 c-3.14,5.8-10.39,9.79-18.5,9.79C692,176.49,681.96,163.32,681.96,145.79 M728.62,145.79c0-8.34-4.72-15.23-13.9-15.23 c-8.58,0-13.9,6.4-13.9,15.23c0,8.82,5.32,15.35,13.9,15.35C723.91,161.14,728.62,154.25,728.62,145.79"></path> <path class="st0" d="M756.24,116.66h18.5v8.46c2.54-5.81,8.58-10.03,16.68-10.03c10.39,0,15.72,4.59,18.25,10.76 c3.14-6.29,10.03-10.76,18.61-10.76c16.68,0,20.67,11.48,20.67,23.69v36.14h-18.62v-32.76c0-8.1-3.02-11.48-8.7-11.48 c-5.8,0-9.79,3.26-9.79,14.26v29.98h-18.61v-32.88c0-8.1-2.9-11.36-8.58-11.36c-5.92,0-9.91,3.26-9.91,14.26v29.98h-18.5V116.66z"></path> </g> </svg> 